<?xml version="1.0" encoding="utf-8"?>
<!-- Generator: Adobe Illustrator 24.0.1, SVG Export Plug-In . SVG Version: 6.00 Build 0)  -->
<svg version="1.1" id="Layer_1" xmlns="http://www.w3.org/2000/svg" xmlns:xlink="http://www.w3.org/1999/xlink" x="0px" y="0px"
	 viewBox="0 0 23.5 23.9" style="enable-background:new 0 0 23.5 23.9;" xml:space="preserve">
<style type="text/css">
	.st0{fill:#E60000;}
	.st1{fill:#38F689;}
</style>
<path class="st0" d="M12,0.5C5.7,0.4,0.4,5.4,0.3,11.7s4.8,11.6,11.2,11.7c6.3,0.1,11.6-4.8,11.7-11.2C23.3,6,18.4,0.7,12,0.5z"/>
<path class="st1" d="M19.3,4.6L19.3,4.6l-0.2-0.1"/>
<path d="M14.2,18.2c-1.6-0.1-3.3-0.1-4.9-0.2c-0.9,0-1.8-0.1-2.7-0.1c0-0.2,0-0.4,0-0.6c0-0.5,0-1,0-1.5c0.1-3.4,0.9-6.9,2.2-10
	c0,0,0,0,0,0c2.9,0,5.8,0,8.7,0.1C16.3,9.9,15.2,14,14.2,18.2L14.2,18.2z M18.2,4.8c-3.4,0-6.8-0.1-10.2-0.1c-0.6,0-0.6,0.7-0.2,1
	C6.4,9,5.7,12.6,5.6,16.2c0,0.5,0,1,0,1.5c0,0.3,0,0.7,0.2,1c0.2,0.2,0.7,0.2,1,0.2c0.5,0,1,0,1.6,0.1c2.1,0.1,4.2,0.2,6.3,0.3
	c0.2,0,0.5-0.2,0.5-0.4c1-4.5,2.2-9,3.6-13.4C18.8,5.1,18.5,4.8,18.2,4.8L18.2,4.8z"/>
<path d="M9,14.4c0.9,1.3,2.7,1.3,3.6,0c0.4-0.5-0.5-1.1-0.9-0.5c-0.5,0.6-1.4,0.6-1.8,0C9.6,13.3,8.7,13.9,9,14.4L9,14.4z"/>
<path d="M10.6,9.3c0,0.7-1,0.7-1,0S10.6,8.6,10.6,9.3"/>
<path d="M14.2,9.5c0,0.7-1,0.7-1,0C13.2,8.8,14.2,8.8,14.2,9.5"/>
</svg>
