<?xml version="1.0" encoding="utf-8"?>
<!-- Generator: Adobe Illustrator 24.0.1, SVG Export Plug-In . SVG Version: 6.00 Build 0)  -->
<svg version="1.1" id="Layer_1" xmlns="http://www.w3.org/2000/svg" xmlns:xlink="http://www.w3.org/1999/xlink" x="0px" y="0px"
	 viewBox="0 0 23.5 23.9" style="enable-background:new 0 0 23.5 23.9;" xml:space="preserve">
<style type="text/css">
	.st0{fill:#38F689;}
	.st1{fill:none;}
	.st2{fill:#E60000;}
</style>
<path class="st0" d="M19.3,4.6L19.3,4.6l-0.2-0.1"/>
<g>
	<path class="st1" d="M18.2,21.4c0.1,0.1,0.1,0.2,0.1,0.2c0,0.2,0,0.4,0,0.6c-0.1,0.3-0.1,0.4,0.3,0.5c0.5,0.2,1.1,0.4,1.6,0.5
		c0.5,0.1,0.7,0,0.8-0.5c0.1-0.4,0.3-0.8,0.5-1.2c0.2-0.4,0.3-0.7,0.5-1.1c0.1-0.2,0-0.3-0.1-0.4c-0.2-0.1-0.4-0.2-0.6-0.3
		c-0.3-0.1-0.5-0.3-0.8-0.4C19.8,20.2,19,20.9,18.2,21.4z"/>
	<path class="st1" d="M17.1,22.4c0.2,0.1,0.3,0,0.3-0.2c0-0.1,0-0.2,0-0.3c-0.2,0.1-0.5,0.3-0.7,0.4C16.8,22.3,16.9,22.3,17.1,22.4z
		"/>
	<path class="st2" d="M15.9,22.1c0.1,0,0.2,0,0.3,0c0.2,0.1,0.3,0.1,0.5,0.2c0.2-0.1,0.5-0.2,0.7-0.4c0-0.1,0-0.2,0-0.3
		c0-0.2,0.2-0.4,0.4-0.4c0.2,0,0.3,0.1,0.4,0.2c0.8-0.6,1.6-1.2,2.3-2c-0.1,0-0.1-0.1-0.2-0.1c-0.2-0.1-0.5-0.3-0.7-0.4
		c-0.3-0.1-0.5-0.3-0.8-0.4c0,0,0,0,0,0c-0.6-0.2-1-0.6-1.6-0.9c-0.1,0-0.2-0.1-0.3-0.1c-0.2-0.1-0.4-0.2-0.5-0.4
		c-0.2-0.2-0.5-0.4-0.8-0.6c-0.1-0.1-0.2-0.2-0.2-0.3c-0.1-0.1-0.1-0.2,0-0.3c0.1-0.1,0.2,0,0.3,0c0.3,0.2,0.7,0.5,1,0.8
		c0.1,0.1,0.2,0.1,0.3,0.2c0.8,0.5,1.7,1,2.5,1.5c0.4,0.2,0.9,0.5,1.3,0.7c1.5-1.9,2.4-4.2,2.4-6.8C23.3,6,18.4,0.7,12,0.5
		C5.7,0.4,0.4,5.4,0.3,11.7c0,3,1.1,5.8,2.9,7.9c0.1-0.1,0.2-0.1,0.2-0.2c0.2-0.1,0.4-0.2,0.6-0.3c0,0,0.1,0,0.1,0
		c0.4-0.4,0.9-0.6,1.4-0.8c0,0,0.1,0,0.1-0.1C5.9,18,6.2,18,6.4,17.8c0.1-0.1,0.2-0.2,0.3-0.2c0.2-0.2,0.5-0.3,0.7-0.5
		c0.2-0.2,0.5-0.3,0.7-0.5c0.2-0.1,0.2-0.1,0.1-0.3c-0.1-0.2-0.3-0.3-0.5-0.4C7.3,15.7,7,15.5,6.8,15c-0.1-0.3-0.2-0.6-0.2-0.9
		c0-0.5,0-1.1-0.2-1.6c-0.1-0.3,0-0.6,0-0.9c0.1-0.3,0.1-0.7,0.1-1c0-0.1,0-0.2,0-0.2c0-0.1,0.1-0.2,0-0.4c0,0,0-0.1,0-0.2
		c0.1-0.1,0.1-0.3,0.1-0.5c0-0.2,0.1-0.4,0.2-0.6c-0.1-0.1-0.2,0-0.3,0c-0.2,0-0.3-0.1-0.4-0.2c-0.1-0.1-0.1-0.3,0-0.4
		C6.4,8,6.5,7.9,6.7,8c0.1,0,0.1,0.1,0.2,0.1C7,8.2,7,8.2,7.1,8.1c0-0.1,0.1-0.1,0.1-0.2c0-0.1,0-0.1,0.1-0.2
		c0.2-0.2,0.3-0.5,0.3-0.7C7.7,6.7,7.8,6.5,8,6.3C8.1,6.1,8.1,6.1,7.9,6C7.6,6,7.5,5.8,7.4,5.5c-0.1-0.3-0.1-0.7-0.1-1
		c0-0.1,0-0.1,0-0.2C7.3,4.1,7.3,4,7.5,3.8c0.1-0.1,0.2-0.2,0.3-0.1C8,3.9,8.1,4,8.2,4.3C8.3,4.7,8.4,5,8.4,5.4c0,0.1,0,0.2,0,0.3
		c0.1,0,0.1,0,0.2,0c0.3-0.2,0.6-0.5,0.8-0.8c0.1-0.2,0.1-0.3-0.1-0.4C9.2,4.5,9,4.4,9,4.3C8.9,4.1,8.9,3.9,8.9,3.7
		c0-0.1,0.1-0.2,0.2-0.3c0,0,0-0.1,0-0.1C8.9,3.1,8.9,3,9,2.8c0.1-0.2,0.3-0.3,0.6-0.2c0,0,0,0,0,0c0.2,0.1,0.3,0.1,0.5,0
		c0.2-0.1,0.5,0,0.6,0.2c0.1,0.2,0.2,0.2,0.4,0.3c0.1,0,0.1,0.1,0.2,0.1c0.2,0.1,0.3,0.3,0.5,0.4c0.1,0,0.1,0.2,0,0.2
		C11.8,3.9,11.7,4,11.6,4c-0.1,0-0.2,0-0.4-0.1c-0.1-0.1-0.2-0.1-0.4-0.1c-0.2,0-0.4,0-0.6-0.1c-0.1-0.1-0.1,0-0.1,0.1
		c0,0.2,0,0.4,0.1,0.6c0,0.1,0.1,0.1,0.1,0c0.2-0.4,0.6-0.2,0.9-0.3c0.2,0,0.4,0.1,0.7,0.1c0.2,0.1,0.3,0,0.3-0.2c0,0,0,0,0-0.1
		c0-0.2,0-0.3,0.2-0.4c0.2-0.1,0.4,0,0.6,0.1c0.1,0.1,0,0.1,0.1,0.2c0,0.3,0.2,0.4,0.4,0.2C13.5,4,13.7,4,13.9,3.8
		c0,0,0.1-0.1,0.1-0.1c0-0.1-0.1-0.1-0.1-0.1c-0.1,0-0.2,0-0.3,0c-0.2,0-0.3,0-0.3-0.2c0-0.2,0.2-0.5,0.3-0.5c0.3,0,0.6,0,0.9,0.2
		c0.2,0.1,0.2,0.2,0.2,0.4c-0.1,0.3-0.2,0.5-0.4,0.7c0,0-0.1,0.1-0.1,0.1c-0.1,0.1,0,0.1,0,0.2c0.1,0.1,0.2,0.1,0.3,0.2
		c0.1,0.1,0.1,0.1,0.2,0c0.1-0.2,0.4-0.2,0.5-0.1c0.1,0.1,0.1,0.1,0.2,0.2c0,0,0.1,0,0.1,0c0,0,0-0.1,0-0.1c0,0,0-0.1,0-0.1
		c-0.1-0.2-0.1-0.3,0-0.4c0.1-0.1,0.2-0.1,0.4-0.1c0.1,0.1,0.3,0.1,0.4,0.2c0.1,0.1,0.1,0.3,0,0.5c-0.1,0.2-0.2,0.3-0.3,0.4
		c-0.2,0.1-0.3,0.3-0.5,0.4c-0.1,0.1-0.2,0.1-0.1,0.3C15.9,6.5,16,7,16.1,7.5c0.1,0.2,0.1,0.4,0.2,0.5c0.1,0.2,0.1,0.3,0.1,0.5
		c0,0.5,0,1,0.1,1.5c0,0.2,0,0.3,0,0.4c-0.1,0.3-0.1,0.7-0.1,1c0,0.3-0.1,0.7-0.1,1c-0.1,0.5-0.2,1-0.3,1.5
		c-0.1,0.3-0.2,0.5-0.3,0.7c-0.1,0.3-0.3,0.7-0.5,1c-0.1,0.2-0.2,0.3-0.4,0.5c-0.3,0.3-0.6,0.6-1,0.9c-0.1,0.1-0.2,0.1-0.3,0.2
		c-0.3,0.2-0.6,0.3-0.9,0.5c-0.1,0-0.1,0.1-0.2,0.1c-0.5,0.1-1.1,0.2-1.6,0.1c-0.3-0.1-0.5-0.1-0.8-0.2c-0.4-0.1-0.7-0.3-1-0.6
		c-0.1-0.1-0.2-0.1-0.3,0c-0.4,0.2-0.8,0.4-1.1,0.7c0,0-0.1,0.1-0.1,0.1c0,0-0.1,0-0.1,0.1c-0.3,0.2-0.6,0.4-0.9,0.6
		C6.2,18.6,6,18.8,5.7,19C5,19.3,4.4,19.7,3.7,20c0,0,0,0,0,0c1.7,1.7,4,2.9,6.6,3.3c0-0.2-0.1-0.3-0.1-0.5c0-0.1-0.1-0.2-0.2-0.3
		s-0.1-0.2,0-0.3c0.1-0.1,0.2-0.3,0.2-0.4c0-0.2,0-0.5,0-0.7c0-0.3,0.2-0.5,0.4-0.5c0.2,0,0.4,0.2,0.5,0.4c0,0.1,0,0.2,0,0.3
		c0,0.5,0,0.5,0.5,0.4c0.3,0,0.6-0.1,0.9-0.1c0.1,0,0.1,0,0.2,0c0.1,0,0.3,0.2,0.3,0.3c0,0.1-0.1,0.2-0.2,0.2
		c-0.1,0.1-0.3,0.1-0.4,0.1c-0.3,0.1-0.7,0.2-1,0.3c-0.2,0.1-0.2,0.1-0.2,0.3c0,0.2,0.1,0.4,0.1,0.5c0.1,0,0.2,0,0.3,0
		c0.6,0,1.2,0,1.8-0.1c0,0-0.1-0.1-0.1-0.1c-0.1-0.3-0.1-0.7-0.1-1c0.1-0.4,0.1-0.8,0.2-1.2c0.1-0.2,0.1-0.5,0.3-0.7
		c0.1-0.2,0.4-0.3,0.6-0.2c0.2,0.1,0.3,0.3,0.2,0.6c-0.3,0.6-0.4,1.2-0.4,1.8c0,0,0,0.1,0,0.1c0,0.1,0,0.2,0.1,0.2
		c0.1,0.1,0.2,0,0.3-0.1c0.1-0.1,0.1-0.1,0.2-0.2c0.1,0,0.1-0.1,0.2-0.1c0.3-0.2,0.7-0.1,0.7,0.3c0.1,0,0.3-0.1,0.4-0.1
		c-0.1-0.1-0.1-0.2-0.2-0.2C15.7,22.3,15.8,22.1,15.9,22.1z M14.2,19.8c0,0-0.1,0-0.1,0c-0.6,0.1-1.1,0.2-1.7,0.3
		c-0.3,0.1-0.6,0.2-0.9,0.3c-0.2,0.1-0.5,0.1-0.7,0c-0.1,0-0.2-0.1-0.1-0.2c0-0.2,0.2-0.3,0.3-0.3c0.7-0.3,1.4-0.5,2.2-0.6
		c0.1,0,0.3,0,0.5,0c0,0,0,0,0,0c0.1,0,0.3,0,0.4,0c0.1,0,0.2,0,0.2,0.2C14.4,19.7,14.3,19.8,14.2,19.8z"/>
	<path class="st2" d="M13.9,7.8c-0.2,0-0.4,0-0.5,0.1c-0.1,0-0.2,0-0.2,0.1c0,0.1-0.1,0.2-0.1,0.4c0,0.4,0.2,1,0.6,1.3
		c0.2,0.2,0.3,0.2,0.6,0.1c0,0,0.1,0,0.1,0c0.3-0.1,0.5-0.4,0.4-0.7c0-0.2,0-0.4-0.1-0.5C14.5,8.1,14.3,7.8,13.9,7.8z M14.1,9.4
		c-0.1,0-0.2-0.1-0.2-0.2C13.7,9,13.7,8.9,14,8.8c0,0,0.1,0,0.1,0c0.2-0.1,0.5,0.1,0.5,0.3C14.6,9.4,14.3,9.5,14.1,9.4z"/>
	<path class="st2" d="M8.6,8.6C8.9,8.7,9,8.9,8.9,9.1c0,0.1-0.1,0.1-0.2,0.2c0,0-0.1,0-0.1,0.1c0,0.1,0.1,0.1,0.1,0.1
		c0.1,0,0.1,0,0.2-0.1C9,9.3,9.2,9.1,9.3,9c0-0.1,0.1-0.1,0.1-0.2c0-0.3-0.1-0.7-0.2-1c0-0.1-0.1-0.1-0.2-0.1
		C8.7,7.9,8.6,8.1,8.5,8.3C8.2,8.7,8.4,8.6,8.6,8.6z"/>
	<path class="st2" d="M8.6,7C8.6,7,8.7,7,8.6,7C8.8,6.8,9,6.7,9.2,6.7c0.3,0,0.4,0,0.5,0.3C9.8,7.3,9.9,7.6,10,7.9
		C10,8,10.1,8,10.2,8c0.1,0,0.2,0,0.4,0.1c0.1,0.1,0.3,0.1,0.5,0.1c0.3,0.1,0.6,0,0.9,0c0.2,0,0.3-0.1,0.4-0.3
		c0-0.2,0.2-0.4,0.4-0.5c0.3-0.2,0.6-0.2,1-0.3c0,0,0.1,0,0.1,0c0.2,0.1,0.4,0.1,0.6,0.1c0.2,0,0.3,0.1,0.4,0.2c0,0,0.1,0.1,0.1,0.1
		c0.1,0,0.2,0.1,0.2,0.2c0,0.1,0.1,0.2,0.1,0.3c0,0.1,0.1,0.1,0.1,0.1c0.1,0,0.1-0.1,0.1-0.1c0-0.1,0-0.1,0-0.2
		c0-0.2-0.1-0.4-0.2-0.7c-0.2-0.5-0.5-1-0.8-1.4c-0.2-0.3-0.5-0.5-0.7-0.8c-0.1-0.1-0.3-0.2-0.5-0.1c-0.1,0-0.1,0.1-0.1,0.1
		c0,0.3-0.2,0.4-0.5,0.3c-0.2-0.1-0.3-0.1-0.5,0c0,0-0.1,0-0.1,0c0,0,0,0,0,0c0,0,0,0,0,0c-0.1,0-0.3,0-0.3-0.2
		c-0.1-0.3-0.4-0.3-0.6-0.3c-0.3,0-0.6,0.1-0.9,0.2c-0.3,0.2-0.5,0.4-0.8,0.7C9.3,5.8,9.2,6.1,8.9,6.4C8.7,6.5,8.6,6.7,8.5,6.9
		c0,0-0.1,0.1,0,0.1C8.5,7,8.6,7,8.6,7z"/>
	<path class="st2" d="M7.5,11.2c0-0.1,0-0.2,0.1-0.2c0.1-0.1,0.2-0.2,0.4-0.2c0.2,0,0.3,0,0.3,0.2c0.1,0.3,0.3,0.6,0.5,0.9
		C8.8,12,8.9,12.1,9,12.1c0.1,0,0.2,0.1,0.3,0c0.1-0.1,0-0.1,0-0.2c0-0.1,0-0.2-0.1-0.2c0-0.2,0-0.4,0-0.6c0.1-0.2,0.3-0.3,0.5-0.2
		c0.1,0.1,0.2,0.2,0.4,0.3c0.1,0,0.1,0.1,0.1,0.2c0,0.2,0.1,0.4,0.1,0.6c0,0.3,0.2,0.5,0.5,0.4c0,0,0.1,0,0.1,0
		c0.2-0.1,0.3-0.2,0.3-0.5c0-0.1,0-0.2,0-0.3c0.1-0.1,0.3-0.2,0.4-0.2c0.2,0,0.3,0.1,0.3,0.3c0,0.1,0.1,0.2,0.1,0.3
		c0.2,0.3,0.4,0.4,0.7,0.3c0.1,0,0.3-0.1,0.4-0.1c0.2-0.1,0.2-0.1,0.2-0.3c0-0.1,0-0.1,0-0.2c0-0.1,0-0.1,0.1-0.2
		c0.3-0.2,0.7,0,0.8,0.3c0,0.2,0.2,0.3,0.4,0.2c0.2-0.1,0.3-0.2,0.4-0.3c0.1-0.2,0.3-0.3,0.5-0.3c0.2,0,0.2-0.1,0.2-0.2
		c0-0.3,0.1-0.7,0.1-1.1c0-0.1,0-0.3,0-0.4c0-0.2,0-0.3,0-0.5c0-0.2-0.1-0.2-0.2-0.2c-0.1,0-0.1,0.1-0.1,0.2c0,0.2,0,0.4-0.2,0.6
		c-0.1,0.1-0.2,0.3-0.4,0.4c-0.2,0.2-0.4,0.3-0.7,0.4c-0.2,0.1-0.5,0.1-0.7-0.1c-0.2-0.2-0.4-0.4-0.6-0.6c-0.2-0.2-0.4-0.5-0.5-0.8
		c0-0.1-0.1-0.2-0.2-0.2c-0.3,0-0.5,0.1-0.8,0c-0.1,0-0.2,0-0.2,0.2c0,0.1,0,0.2,0,0.4c0,0.2,0,0.4,0.1,0.5c0.1,0.2,0.1,0.2,0.3,0.2
		c0.1,0,0.1,0,0.2,0c0.2,0,0.3,0,0.4,0.2c0.1,0.1,0.1,0.1,0,0.2c-0.1,0.1-0.2,0.1-0.2,0.2c-0.2,0.2-0.8,0.3-1,0.1
		c-0.1-0.1-0.3-0.2-0.4-0.4c-0.1-0.3-0.2-0.6-0.1-1c0-0.2,0-0.3,0.1-0.5c0-0.1,0-0.1-0.1-0.2c-0.2-0.1-0.2-0.1-0.2,0.1
		c0,0.4-0.2,0.6-0.5,0.8C9.6,9.8,9.5,9.9,9.4,10c-0.5,0.5-1.2,0.4-1.5-0.2C7.8,9.6,7.7,9.5,7.6,9.3c0-0.1-0.1-0.1-0.2,0
		c0,0.1,0,0.1-0.1,0.2c0,0.2-0.1,0.4-0.1,0.6c-0.1,0.5-0.2,0.9-0.1,1.4c0,0.1,0.1,0.2,0.2,0.3c0.1,0.1,0.1,0,0.1,0
		C7.5,11.6,7.6,11.4,7.5,11.2z"/>
	<path class="st2" d="M9.2,14.8c0,0.1,0,0.2,0,0.3c-0.1,0.4,0.1,0.7,0.3,1c0.2,0.2,0.3,0.2,0.4-0.1c0.1-0.2,0.2-0.4,0.3-0.6
		c0.2-0.2,0.5-0.2,0.7,0c0.1,0.2,0.1,0.5,0,0.7c-0.1,0.1-0.1,0.2-0.2,0.3c-0.1,0.1-0.1,0.2-0.1,0.3c0,0.1,0.1,0.1,0.2,0.1
		c0.1-0.1,0.1-0.1,0.2-0.2c0.1-0.2,0.3-0.3,0.5-0.3c0.2,0,0.3,0.1,0.4,0.3c0,0.1,0,0.2,0,0.3C12,17,12.1,17,12.3,17
		c0.2-0.1,0.3-0.3,0.4-0.4c0.2-0.2,0.4-0.5,0.4-0.8c0-0.2,0.1-0.5,0-0.7c0,0,0-0.1,0-0.2c0-0.1,0-0.2,0.2-0.2
		c0.3-0.1,0.5-0.1,0.7,0.2c0.1,0.1,0.2,0.1,0.3,0c0.2-0.2,0.4-0.3,0.5-0.5c0.2-0.2,0.2-0.3,0-0.4c-0.1-0.1-0.2-0.2-0.2-0.4
		c0-0.1,0.1-0.2,0.1-0.4c0-0.1,0.1-0.2,0.2-0.2c0.1,0,0.2-0.1,0.3-0.2c0.1-0.2,0.2-0.4,0.4-0.4c0,0,0.1,0,0.1-0.1c0,0,0-0.1,0-0.1
		c0,0-0.1,0-0.1,0c-0.1,0.1-0.1,0.1-0.2,0.2c-0.3,0.2-0.6,0.2-0.9,0.3c-0.1,0-0.3,0-0.4-0.1c-0.1-0.1-0.2-0.1-0.2,0
		c-0.2,0.1-0.5,0.2-0.7,0.3c-0.4,0.1-0.9,0.2-1.2-0.2c0-0.1-0.1-0.1-0.2-0.1c-0.1,0.1-0.3,0.1-0.3,0.2c0,0.1-0.1,0.1-0.2,0.1
		c-0.3,0.1-0.6,0.1-0.8-0.1c-0.2-0.1-0.3-0.1-0.5-0.1c-0.5,0.1-1,0-1.4-0.4c0,0-0.1-0.1-0.1-0.1c-0.1-0.1-0.2,0-0.2,0.1
		c0,0.1,0,0.1,0.1,0.1c0,0,0.1,0,0.1,0.1c0.2,0.2,0.2,0.4,0,0.6c-0.1,0.1-0.2,0.2-0.2,0.3c0,0.2-0.1,0.3-0.3,0.4
		c-0.1,0-0.2,0.1-0.1,0.2c0.2,0.4,0.4,0.8,0.7,1.2c0.1-0.1,0.1-0.1,0.1-0.2c0.1-0.4,0.4-0.5,0.7-0.5C9.1,14.6,9.2,14.7,9.2,14.8z
		 M9.4,13.2c0.1,0,0.3-0.1,0.4-0.1c0.1,0,0.2,0.1,0.2,0.2c0.1,0.2,0.3,0.4,0.5,0.6c0.1,0.1,0.2,0.1,0.3,0.1c0.3-0.1,0.7-0.1,0.9-0.5
		c0.1-0.1,0.4-0.2,0.5-0.1c0.1,0,0.3,0.2,0.3,0.4c0,0.2-0.1,0.4-0.3,0.4c-0.3,0.1-0.5,0.2-0.8,0.3c-0.2,0-0.3,0.1-0.5,0.1
		c-0.4,0.1-0.8-0.2-1.1-0.4c-0.1-0.1-0.2-0.2-0.3-0.3c-0.2-0.1-0.2-0.3-0.3-0.5C9.3,13.3,9.3,13.3,9.4,13.2z"/>
	<path class="st2" d="M13.8,15.6c0,0.2-0.1,0.4-0.1,0.6c0.2-0.2,0.5-0.3,0.6-0.6c-0.2,0-0.3,0-0.4,0C13.8,15.6,13.8,15.6,13.8,15.6z
		"/>
	<path d="M10,17.6c0.3,0.1,0.5,0.2,0.8,0.2c0.5,0.1,1.1,0,1.6-0.1c0.1,0,0.1,0,0.2-0.1c0.3-0.2,0.6-0.3,0.9-0.5
		c0.1,0,0.2-0.1,0.3-0.2c0.4-0.3,0.7-0.6,1-0.9c0.2-0.1,0.3-0.3,0.4-0.5c0.2-0.3,0.4-0.6,0.5-1c0.1-0.2,0.2-0.5,0.3-0.7
		c0.1-0.5,0.2-1,0.3-1.5c0-0.3,0.1-0.7,0.1-1c0-0.3,0-0.7,0.1-1c0-0.1,0.1-0.3,0-0.4c0-0.5,0-1-0.1-1.5c0-0.2,0-0.3-0.1-0.5
		c-0.1-0.2-0.1-0.3-0.2-0.5C16,7,15.9,6.5,15.6,6.1c-0.1-0.1-0.1-0.2,0.1-0.3c0.2-0.1,0.3-0.3,0.5-0.4c0.1-0.1,0.2-0.3,0.3-0.4
		c0.1-0.2,0.1-0.4,0-0.5c-0.1-0.1-0.2-0.2-0.4-0.2c-0.1-0.1-0.3,0-0.4,0.1c-0.1,0.1-0.1,0.2,0,0.4c0,0,0,0.1,0,0.1c0,0,0,0.1,0,0.1
		c0,0-0.1,0-0.1,0c-0.1,0-0.1-0.1-0.2-0.2c-0.2-0.2-0.4-0.1-0.5,0.1c-0.1,0.1-0.1,0.1-0.2,0c-0.1-0.1-0.2-0.2-0.3-0.2
		c-0.1,0-0.1-0.1,0-0.2c0,0,0.1-0.1,0.1-0.1c0.2-0.2,0.4-0.4,0.4-0.7c0-0.2,0-0.3-0.2-0.4C14.2,3.1,13.9,3,13.6,3
		c-0.2,0-0.4,0.3-0.3,0.5c0,0.2,0.1,0.2,0.3,0.2c0.1,0,0.2-0.1,0.3,0c0.1,0,0.1,0,0.1,0.1c0,0.1,0,0.1-0.1,0.1
		C13.7,4,13.5,4,13.4,4.1C13.1,4.3,13,4.2,13,3.9c0-0.1,0-0.2-0.1-0.2c-0.1-0.1-0.4-0.2-0.6-0.1c-0.2,0.1-0.2,0.2-0.2,0.4
		c0,0,0,0,0,0.1c0,0.2,0,0.3-0.3,0.2c-0.2-0.1-0.4-0.1-0.7-0.1c-0.3,0-0.7-0.1-0.9,0.3c0,0-0.1,0-0.1,0c0-0.2-0.1-0.4-0.1-0.6
		c0-0.1,0.1-0.1,0.1-0.1c0.2,0.2,0.4,0.1,0.6,0.1c0.1,0,0.2,0,0.4,0.1C11.3,4,11.5,4,11.6,4c0.1,0,0.2-0.1,0.3-0.2
		c0-0.1,0-0.2,0-0.2c-0.2-0.1-0.4-0.3-0.5-0.4c0,0-0.1-0.1-0.2-0.1c-0.2,0-0.3-0.1-0.4-0.3c-0.1-0.2-0.4-0.3-0.6-0.2
		c-0.2,0.1-0.3,0.1-0.5,0c0,0,0,0,0,0C9.4,2.5,9.1,2.6,9,2.8C8.9,3,8.9,3.1,9.1,3.3c0,0,0,0,0,0.1C9,3.4,8.9,3.5,8.9,3.7
		c0,0.2,0,0.4,0.1,0.6c0,0.1,0.2,0.2,0.3,0.2c0.2,0.1,0.2,0.2,0.1,0.4C9.1,5.2,8.8,5.4,8.5,5.7c0,0-0.1,0.1-0.2,0c0-0.1,0-0.2,0-0.3
		c0-0.4-0.1-0.8-0.1-1.2C8.1,4,8,3.9,7.7,3.7c-0.1-0.1-0.2,0-0.3,0.1C7.3,4,7.3,4.1,7.3,4.3c0,0.1,0,0.1,0,0.2c0,0.3-0.1,0.7,0.1,1
		C7.5,5.8,7.6,6,7.9,6C8.1,6.1,8.1,6.1,8,6.3C7.8,6.5,7.7,6.7,7.6,6.9C7.5,7.2,7.5,7.4,7.3,7.7c0,0,0,0.1-0.1,0.2
		c0,0.1,0,0.2-0.1,0.2C7,8.2,7,8.2,6.9,8.1C6.8,8.1,6.7,8.1,6.7,8C6.5,7.9,6.4,8,6.2,8.2c-0.1,0.1-0.1,0.3,0,0.4
		c0.1,0.1,0.2,0.2,0.4,0.2c0.1,0,0.2,0,0.3,0C6.8,9,6.7,9.2,6.7,9.5c0,0.2,0,0.3-0.1,0.5c0,0,0,0.1,0,0.2c0.1,0.1,0,0.2,0,0.4
		c0,0.1-0.1,0.1,0,0.2c0.1,0.3,0,0.7-0.1,1c-0.1,0.3-0.1,0.6,0,0.9c0.2,0.5,0.2,1,0.2,1.6c0,0.3,0,0.6,0.2,0.9
		c0.2,0.4,0.5,0.7,0.9,0.9c0.2,0.1,0.4,0.2,0.5,0.4L9,17C9.3,17.2,9.6,17.4,10,17.6z M13.7,16.2c-0.1-0.2,0-0.4,0.1-0.6
		c0,0,0.1-0.1,0.1-0.1c0.1,0,0.3,0,0.4,0C14.2,15.9,14,16,13.7,16.2z M8.5,6.9c0.1-0.2,0.2-0.4,0.4-0.5c0.3-0.2,0.4-0.5,0.7-0.7
		c0.3-0.2,0.5-0.5,0.8-0.7c0.3-0.2,0.6-0.2,0.9-0.2c0.3,0,0.5,0,0.6,0.3c0.1,0.1,0.2,0.2,0.3,0.2c0,0,0-0.1,0-0.1c0,0,0,0.1,0,0.1
		c0,0,0.1,0,0.1,0c0.2-0.1,0.3,0,0.5,0c0.3,0.1,0.4,0,0.5-0.3c0-0.1,0-0.1,0.1-0.1c0.2-0.1,0.3-0.1,0.5,0.1c0.2,0.3,0.5,0.5,0.7,0.8
		c0.3,0.4,0.6,0.9,0.8,1.4c0.1,0.2,0.2,0.4,0.2,0.7c0,0.1,0,0.1,0,0.2c0,0.1-0.1,0.1-0.1,0.1c-0.1,0-0.1,0-0.1-0.1
		c0-0.1-0.1-0.2-0.1-0.3c-0.1-0.1-0.1-0.2-0.2-0.2c-0.1,0-0.1-0.1-0.1-0.1c-0.1-0.1-0.2-0.2-0.4-0.2c-0.2,0-0.4,0-0.6-0.1
		c0,0-0.1,0-0.1,0c-0.3,0.1-0.7,0.1-1,0.3c-0.2,0.1-0.3,0.3-0.4,0.5c-0.1,0.2-0.2,0.3-0.4,0.3c-0.3,0-0.6,0.1-0.9,0
		c-0.2,0-0.3-0.1-0.5-0.1C10.4,8,10.3,8,10.2,8C10.1,8,10,8,10,7.9C9.9,7.6,9.8,7.3,9.7,7C9.6,6.7,9.5,6.7,9.2,6.7
		C9,6.7,8.8,6.8,8.7,6.9C8.7,7,8.6,7,8.6,7c0,0-0.1,0-0.1,0C8.4,6.9,8.5,6.9,8.5,6.9z M14.7,9c0,0.3-0.1,0.6-0.4,0.7
		c0,0-0.1,0-0.1,0c-0.3,0.1-0.4,0.1-0.6-0.1c-0.3-0.3-0.6-0.9-0.6-1.3c0-0.2,0-0.3,0.1-0.4c0-0.1,0.2-0.1,0.2-0.1
		c0.2-0.1,0.3-0.1,0.5-0.1c0.4,0.1,0.6,0.3,0.7,0.7C14.7,8.6,14.7,8.8,14.7,9z M8.5,8.3c0.1-0.2,0.2-0.4,0.5-0.6
		C9,7.7,9.1,7.7,9.1,7.8c0.1,0.3,0.2,0.6,0.2,1c0,0.1,0,0.1-0.1,0.2C9.2,9.1,9,9.3,8.9,9.4C8.8,9.5,8.8,9.5,8.7,9.5
		c-0.1,0-0.1,0-0.1-0.1c0-0.1,0-0.1,0.1-0.1c0.1,0,0.1-0.1,0.2-0.2C9,8.9,8.9,8.7,8.6,8.6C8.4,8.6,8.2,8.7,8.5,8.3z M7.3,11.8
		c-0.1-0.1-0.2-0.2-0.2-0.3c0-0.5,0.1-0.9,0.1-1.4c0-0.2,0.1-0.4,0.1-0.6c0-0.1,0-0.1,0.1-0.2c0.1-0.1,0.1-0.1,0.2,0
		c0.1,0.2,0.2,0.3,0.3,0.5c0.3,0.6,1.1,0.7,1.5,0.2c0.1-0.1,0.2-0.2,0.3-0.3c0.2-0.2,0.4-0.5,0.5-0.8c0-0.2,0.1-0.2,0.2-0.1
		c0.1,0,0.1,0.1,0.1,0.2c-0.1,0.1-0.1,0.3-0.1,0.5c-0.1,0.3,0,0.7,0.1,1c0.1,0.2,0.2,0.3,0.4,0.4c0.3,0.2,0.8,0.1,1-0.1
		c0.1-0.1,0.2-0.1,0.2-0.2c0.1-0.1,0.1-0.1,0-0.2c-0.1-0.1-0.2-0.2-0.4-0.2c-0.1,0-0.1,0-0.2,0c-0.2,0-0.3,0-0.3-0.2
		c-0.1-0.2-0.1-0.4-0.1-0.5c0-0.1,0-0.2,0-0.4c0-0.1,0-0.2,0.2-0.2c0.3,0,0.5,0,0.8,0c0.1,0,0.2,0,0.2,0.2c0.1,0.3,0.2,0.6,0.5,0.8
		c0.2,0.2,0.4,0.4,0.6,0.6c0.2,0.2,0.5,0.2,0.7,0.1c0.2-0.1,0.5-0.2,0.7-0.4c0.1-0.1,0.3-0.3,0.4-0.4c0.2-0.2,0.2-0.4,0.2-0.6
		c0-0.1,0-0.2,0.1-0.2c0.1,0,0.2,0.1,0.2,0.2c0,0.2,0,0.3,0,0.5c0,0.2,0,0.3,0,0.4c0,0.4,0,0.8-0.1,1.1c0,0.1-0.1,0.2-0.2,0.2
		c-0.2,0-0.3,0.1-0.5,0.3c-0.1,0.1-0.2,0.2-0.4,0.3c-0.2,0.1-0.3,0-0.4-0.2c-0.1-0.3-0.5-0.5-0.8-0.3c-0.1,0-0.1,0.1-0.1,0.2
		c0,0.1,0,0.1,0,0.2c0,0.2,0,0.3-0.2,0.3c-0.1,0.1-0.3,0.1-0.4,0.1c-0.3,0.1-0.6,0-0.7-0.3C12,11.8,12,11.7,12,11.6
		c0-0.2-0.1-0.3-0.3-0.3c-0.2,0-0.3,0-0.4,0.2c-0.1,0.1-0.1,0.2,0,0.3c0,0.3,0,0.4-0.3,0.5c0,0-0.1,0-0.1,0c-0.3,0.1-0.6,0-0.5-0.4
		c0-0.2,0-0.4-0.1-0.6c0-0.1,0-0.1-0.1-0.2C10,11,9.8,10.9,9.7,10.9c-0.2-0.1-0.4,0-0.5,0.2c-0.1,0.2-0.1,0.4,0,0.6
		c0,0.1,0,0.2,0.1,0.2c0,0.1,0.1,0.1,0,0.2c-0.1,0.1-0.2,0-0.3,0c-0.1,0-0.2-0.1-0.3-0.2c-0.2-0.3-0.4-0.5-0.5-0.9
		c0-0.2-0.1-0.2-0.3-0.2c-0.2,0-0.3,0.1-0.4,0.2c-0.1,0.1-0.1,0.2-0.1,0.2c0.1,0.2-0.1,0.4-0.1,0.5C7.4,11.9,7.3,11.9,7.3,11.8z
		 M8.3,15c0,0.1,0,0.1-0.1,0.2c-0.3-0.4-0.5-0.8-0.7-1.2c-0.1-0.1,0-0.2,0.1-0.2c0.2-0.1,0.2-0.2,0.3-0.4c0-0.1,0.1-0.2,0.2-0.3
		c0.2-0.2,0.2-0.4,0-0.6c0,0-0.1,0-0.1-0.1c-0.1,0-0.1-0.1-0.1-0.1c0-0.1,0.1-0.1,0.2-0.1c0,0,0.1,0.1,0.1,0.1
		c0.4,0.4,0.9,0.5,1.4,0.4c0.2,0,0.3,0,0.5,0.1c0.3,0.1,0.5,0.2,0.8,0.1c0.1,0,0.2,0,0.2-0.1c0.1-0.1,0.2-0.2,0.3-0.2
		c0.1-0.1,0.1,0,0.2,0.1c0.4,0.4,0.8,0.3,1.2,0.2c0.3,0,0.5-0.1,0.7-0.3c0.1-0.1,0.2,0,0.2,0c0.1,0.1,0.3,0.1,0.4,0.1
		c0.3-0.1,0.7-0.1,0.9-0.3c0.1-0.1,0.1-0.1,0.2-0.2c0,0,0.1-0.1,0.1,0c0,0,0,0.1,0,0.1c0,0,0,0.1-0.1,0.1c-0.2,0.1-0.3,0.3-0.4,0.4
		c-0.1,0.1-0.1,0.2-0.3,0.2c-0.1,0-0.2,0.1-0.2,0.2c0,0.1-0.1,0.2-0.1,0.4c0,0.1,0.1,0.3,0.2,0.4c0.2,0.1,0.2,0.2,0,0.4
		c-0.2,0.2-0.4,0.3-0.5,0.5c-0.1,0.1-0.2,0.1-0.3,0c-0.2-0.2-0.4-0.2-0.7-0.2c-0.1,0-0.2,0.1-0.2,0.2c0,0.1,0,0.1,0,0.2
		c0.1,0.2,0,0.5,0,0.7c0,0.3-0.2,0.6-0.4,0.8c-0.1,0.1-0.2,0.3-0.4,0.4C12.1,17,12,17,12,16.8c0-0.1,0-0.2,0-0.3
		c-0.1-0.2-0.2-0.3-0.4-0.3c-0.2,0-0.4,0.1-0.5,0.3c-0.1,0.1-0.1,0.2-0.2,0.2c-0.1,0.1-0.2,0-0.2-0.1c0-0.1,0-0.2,0.1-0.3
		c0.1-0.1,0.1-0.2,0.2-0.3c0.1-0.2,0.1-0.5,0-0.7c-0.1-0.2-0.5-0.2-0.7,0c-0.2,0.2-0.2,0.4-0.3,0.6c-0.1,0.2-0.3,0.3-0.4,0.1
		c-0.3-0.3-0.4-0.6-0.3-1c0-0.1,0-0.2,0-0.3c0-0.2-0.1-0.2-0.2-0.3C8.6,14.5,8.3,14.7,8.3,15z"/>
	<path d="M5.7,19c0.3-0.1,0.5-0.3,0.8-0.5c0.3-0.2,0.6-0.4,0.9-0.6l-0.7-0.4c-0.1,0.1-0.2,0.1-0.3,0.2C6.2,18,5.9,18,5.7,18.2
		c0,0-0.1,0-0.1,0.1c-0.5,0.2-1,0.5-1.4,0.8c0,0-0.1,0-0.1,0c-0.2,0.1-0.4,0.2-0.6,0.3c-0.1,0-0.2,0.1-0.2,0.2
		c0.1,0.1,0.3,0.3,0.4,0.4c0,0,0,0,0,0C4.4,19.7,5,19.3,5.7,19z"/>
	<path d="M17,16.8c-0.1-0.1-0.2-0.1-0.3-0.2c-0.3-0.3-0.7-0.5-1-0.8c-0.1-0.1-0.2-0.1-0.3,0c-0.1,0.1-0.1,0.2,0,0.3
		c0.1,0.1,0.1,0.2,0.2,0.3c0.2,0.2,0.5,0.4,0.8,0.6c0.1,0.2,0.3,0.3,0.5,0.4c0.1,0,0.2,0.1,0.3,0.1c0.5,0.3,1,0.7,1.6,0.9
		c0,0,0,0,0,0c0.2,0.2,0.5,0.3,0.8,0.4c0.2,0.1,0.5,0.2,0.7,0.4c0.1,0,0.1,0.1,0.2,0.1c0.1-0.1,0.2-0.3,0.3-0.4
		c-0.4-0.2-0.9-0.5-1.3-0.7C18.6,17.8,17.8,17.4,17,16.8z"/>
	<path d="M17.4,21.6c0,0.1,0,0.2,0,0.3c0.3-0.2,0.5-0.3,0.8-0.5c-0.1-0.1-0.2-0.2-0.4-0.2C17.6,21.2,17.4,21.4,17.4,21.6z"/>
	<path d="M16.2,22.1c-0.1,0-0.2,0-0.3,0c-0.1,0-0.2,0.2-0.2,0.3c0,0.1,0.1,0.2,0.2,0.2c0.3-0.1,0.5-0.2,0.8-0.3
		C16.5,22.2,16.3,22.2,16.2,22.1z"/>
	<path d="M14.8,22.4c-0.1,0-0.1,0.1-0.2,0.1c-0.1,0.1-0.1,0.1-0.2,0.2c-0.1,0.1-0.2,0.1-0.3,0.1c-0.1,0-0.1-0.1-0.1-0.2
		c0,0,0-0.1,0-0.1c0-0.6,0.2-1.2,0.4-1.8c0.1-0.3,0.1-0.5-0.2-0.6c-0.2-0.1-0.5,0-0.6,0.2c-0.1,0.2-0.2,0.4-0.3,0.7
		c-0.1,0.4-0.2,0.8-0.2,1.2c0,0.3-0.1,0.7,0.1,1c0,0,0,0.1,0.1,0.1c0.8-0.1,1.5-0.3,2.2-0.5C15.4,22.3,15,22.3,14.8,22.4z"/>
	<path d="M11.3,22.6c0.3-0.1,0.6-0.2,1-0.3c0.1,0,0.3-0.1,0.4-0.1c0.1,0,0.2-0.1,0.2-0.2c0-0.1-0.2-0.2-0.3-0.3c-0.1,0-0.1,0-0.2,0
		c-0.3,0.1-0.6,0.1-0.9,0.1c-0.5,0.1-0.5,0-0.5-0.4c0-0.1,0-0.2,0-0.3c0-0.2-0.3-0.4-0.5-0.4c-0.3,0-0.4,0.2-0.4,0.5
		c0,0.2,0,0.5,0,0.7c0,0.2,0,0.3-0.2,0.4c-0.1,0.1-0.1,0.2,0,0.3s0.2,0.2,0.2,0.3c0,0.2,0,0.3,0.1,0.5c0.3,0,0.6,0.1,0.9,0.1
		c0-0.2-0.1-0.4-0.1-0.5C11.1,22.7,11.1,22.6,11.3,22.6z"/>
	<path d="M14.1,19.4c-0.1,0-0.3,0-0.4,0c0,0,0,0,0,0c-0.2,0-0.3,0-0.5,0c-0.8,0.1-1.5,0.3-2.2,0.6c-0.1,0.1-0.3,0.2-0.3,0.3
		c0,0.1,0,0.2,0.1,0.2c0.2,0,0.5,0,0.7,0c0.3-0.1,0.6-0.2,0.9-0.3c0.5-0.2,1.1-0.3,1.7-0.3c0,0,0.1,0,0.1,0c0.1-0.1,0.2-0.2,0.1-0.3
		C14.3,19.4,14.2,19.4,14.1,19.4z"/>
	<path d="M9.9,14.2c0.3,0.2,0.6,0.4,1.1,0.4c0.1,0,0.3,0,0.5-0.1c0.3-0.1,0.5-0.2,0.8-0.3c0.2-0.1,0.3-0.2,0.3-0.4
		c0-0.2-0.1-0.3-0.3-0.4c-0.1,0-0.5,0-0.5,0.1c-0.2,0.3-0.5,0.4-0.9,0.5c-0.1,0-0.2,0-0.3-0.1c-0.2-0.2-0.4-0.3-0.5-0.6
		c-0.1-0.1-0.1-0.2-0.2-0.2c-0.2,0-0.3,0-0.4,0.1c-0.1,0-0.1,0.1-0.1,0.2c0,0.2,0.1,0.4,0.3,0.5C9.7,14.1,9.8,14.2,9.9,14.2z"/>
	<path d="M14.1,8.8C14.1,8.8,14,8.8,14.1,8.8c-0.4,0.1-0.4,0.2-0.2,0.4c0.1,0.1,0.1,0.2,0.2,0.2c0.3,0.1,0.5,0,0.5-0.3
		C14.6,8.9,14.3,8.7,14.1,8.8z"/>
	<path d="M7.5,17.8c0.1,0,0.1-0.1,0.1-0.1c0.3-0.3,0.7-0.5,1.1-0.7c0.1-0.1,0.2,0,0.3,0l-0.8-0.7c0.1,0.2,0.1,0.2-0.1,0.3
		c-0.3,0.1-0.5,0.3-0.7,0.5c-0.2,0.2-0.5,0.3-0.7,0.5L7.5,17.8C7.4,17.9,7.5,17.9,7.5,17.8z"/>
</g>
</svg>
